<?xml version="1.0" encoding="UTF-8"?>
<!DOCTYPE svg PUBLIC "-//W3C//DTD SVG 1.1//EN" "http://www.w3.org/Graphics/SVG/1.1/DTD/svg11.dtd">
<!-- Creator: CorelDRAW 2020 (64-Bit) -->
<svg xmlns="http://www.w3.org/2000/svg" xml:space="preserve" width="21.6746mm" height="21.6746mm" version="1.1" style="shape-rendering:geometricPrecision; text-rendering:geometricPrecision; image-rendering:optimizeQuality; fill-rule:evenodd; clip-rule:evenodd"
viewBox="0 0 2167.46 2167.46"
 xmlns:xlink="http://www.w3.org/1999/xlink"
 xmlns:xodm="http://www.corel.com/coreldraw/odm/2003">
 <defs>
  <style type="text/css">
   <![CDATA[
    .fil0 {fill:#A9ABAE}
    .fil1 {fill:#373435;fill-rule:nonzero}
   ]]>
  </style>
 </defs>
 <g id="Capa_x0020_1">
  <metadata id="CorelCorpID_0Corel-Layer"/>
  <path class="fil0" d="M747.84 901.65c-4.15,8.67 -7.41,5.13 -8.73,19.77 -0.75,8.25 -0.12,21.29 -0.11,30.03l0.04 92.33c1.34,18.8 6.39,10.5 8.63,22.44l0.24 308.52c0,50.75 -5.88,203.04 6.78,238.58 25.94,72.77 81.78,61.95 157.31,61.95 70.24,0 140.47,0 210.7,0 41.41,0 175.7,6.54 203.43,-7.42 62.94,-31.68 53.4,-96.18 53.4,-183.55 0,-51.77 -1.81,-545.5 0.88,-554.61 5.45,-18.45 8.13,12.77 8.13,-52.94l-0.21 -92.01c-2.06,-16.45 -6.91,-6.67 -8.76,-22.38 -7.46,-63.38 12.63,-185.4 -12.1,-231.75 -34.07,-63.87 -91.15,-49.28 -168.15,-49.28l-314.99 0c-35.67,0 -66.03,-4.87 -93.99,14.04 -48.91,33.05 -41.87,87.82 -42.25,135.09 -0.28,33.09 -9.28,-6.52 -9.1,52.07 0.2,66.63 7.42,33.46 8.63,52.45 1.25,19.76 -8.67,-12.75 -8.62,52.13l-0.04 92.32c0.74,13.33 4.88,14.09 8.88,22.22zm442.88 -370.58l-254.28 0.14c-1.92,47.09 10.55,39.06 45.8,39.06l161.74 0c34.66,0 50.63,8.4 46.74,-39.2zm43.41 0.46c-1.45,34.91 -3.85,77.7 -48.47,87.51 -14.14,3.12 -231.83,2.95 -244.7,-0.13 -48.1,-11.53 -45.19,-62.74 -48.01,-87.74 -119.63,0 -102.32,-16.51 -102.32,263.41l-0.03 766.92c-0.16,79.07 49.62,63.95 108.63,63.95 109.96,0 219.92,0 329.88,0 58.11,0 108.09,14.29 107.87,-63.93l-0.03 -958.67c0.12,-76.48 -30.08,-76.83 -102.82,-71.32z"/>
  <path class="fil1" d="M448.62 2153.82c52.83,0 83.57,-29.31 100.59,-59.33l-44.14 -21.35c-10.14,19.54 -31.85,35.1 -56.45,35.1 -44.15,0 -75.98,-33.66 -75.98,-79.25 0,-45.58 31.83,-79.23 75.98,-79.23 24.6,0 46.31,15.56 56.45,35.09l44.14 -21.7c-17.02,-30.39 -47.76,-58.98 -100.59,-58.98 -72.73,0 -128.8,50.29 -128.8,124.82 0,74.18 56.07,124.83 128.8,124.83zm212.39 0c27.13,0 54.63,-8.32 71.99,-24.24l-20.62 -30.4c-11.21,10.87 -31.48,17.01 -46.31,17.01 -29.67,0 -47.03,-17.72 -50.29,-39.07l129.88 0 0 -10.85c0,-56.82 -35.09,-95.89 -87.55,-95.89 -52.83,0 -90.45,40.88 -90.45,91.54 0,56.08 40.16,91.9 93.35,91.9zm40.52 -108.54l-86.11 0c1.81,-17.37 14.1,-37.27 42.69,-37.27 30.39,0 41.97,20.62 43.42,37.27zm123.37 104.2l0 -241.32 -45.95 0 0 241.32 45.95 0zm209.49 0l0 -174.75 -45.95 0 0 118.31c-7.96,10.13 -22.06,19.9 -39.79,19.9 -19.55,0 -32.21,-7.97 -32.21,-32.2l0 -106.01 -45.95 0 0 124.1c0,34.01 18.09,54.99 56.44,54.99 28.59,0 49.57,-13.38 61.51,-26.42l0 22.08 45.95 0zm91.54 0l0 -241.32 -45.95 0 0 241.32 45.95 0zm196.82 0l0 -112.89c0,-50.28 -36.53,-66.21 -76.69,-66.21 -27.5,0 -55,8.33 -76.34,27.51l18.08 32.2c14.48,-13.39 31.85,-20.64 50.3,-20.64 23.15,0 38.35,11.58 38.35,29.31l0 22.07c-11.58,-13.74 -31.85,-21.34 -55.36,-21.34 -27.86,0 -60.42,15.2 -60.42,56.44 0,39.08 32.56,57.89 60.42,57.89 22.8,0 43.42,-8.32 55.36,-22.79l0 18.45 46.3 0zm-83.21 -26.77c-18.08,0 -32.93,-9.41 -32.93,-26.05 0,-16.65 14.85,-26.41 32.93,-26.41 14.83,0 29.31,5.42 36.91,15.55l0 21.71c-7.6,10.13 -22.08,15.2 -36.91,15.2zm174.39 26.77l0 -115.41c7.6,-11.23 27.86,-19.91 43.06,-19.91 5.42,0 9.4,0.37 12.66,1.08l0 -44.86c-21.71,0 -43.06,12.66 -55.72,27.86l0 -23.51 -45.95 0 0 174.75 45.95 0zm166.44 4.34c27.13,0 54.64,-8.32 71.99,-24.24l-20.62 -30.4c-11.21,10.87 -31.47,17.01 -46.3,17.01 -29.68,0 -47.04,-17.72 -50.3,-39.07l129.89 0 0 -10.85c0,-56.82 -35.1,-95.89 -87.55,-95.89 -52.84,0 -90.46,40.88 -90.46,91.54 0,56.08 40.16,91.9 93.35,91.9zm40.52 -108.54l-86.11 0c1.81,-17.37 14.11,-37.27 42.7,-37.27 30.39,0 41.97,20.62 43.41,37.27zm140.38 108.54c48.49,0 75.98,-23.52 75.98,-55.72 0,-70.55 -103.84,-48.84 -103.84,-74.53 0,-9.77 10.85,-17.01 27.5,-17.01 21.34,0 41.25,9.41 51.74,20.26l18.46 -32.56c-17.37,-13.74 -40.89,-23.88 -70.2,-23.88 -46.31,0 -71.64,25.69 -71.64,55 0,68.74 103.48,45.22 103.48,73.8 0,10.87 -9.4,18.46 -29.31,18.46 -21.7,0 -47.39,-11.94 -60.42,-24.25l-19.9 33.3c18.46,17 47.76,27.13 78.15,27.13z"/>
 </g>
</svg>
