<?xml version="1.0" encoding="UTF-8"?>
<!DOCTYPE svg PUBLIC "-//W3C//DTD SVG 1.1//EN" "http://www.w3.org/Graphics/SVG/1.1/DTD/svg11.dtd">
<!-- Creator: CorelDRAW 2020 (64-Bit) -->
<svg xmlns="http://www.w3.org/2000/svg" xml:space="preserve" width="21.6746mm" height="21.6746mm" version="1.1" style="shape-rendering:geometricPrecision; text-rendering:geometricPrecision; image-rendering:optimizeQuality; fill-rule:evenodd; clip-rule:evenodd"
viewBox="0 0 2167.46 2167.46"
 xmlns:xlink="http://www.w3.org/1999/xlink"
 xmlns:xodm="http://www.corel.com/coreldraw/odm/2003">
 <defs>
  <style type="text/css">
   <![CDATA[
    .fil0 {fill:#A9ABAE}
    .fil1 {fill:#373435;fill-rule:nonzero}
   ]]>
  </style>
 </defs>
 <g id="Capa_x0020_1">
  <metadata id="CorelCorpID_0Corel-Layer"/>
  <g id="_2915145830320">
   <path class="fil0" d="M442.53 352.39c-22.83,4.12 -42.46,12.51 -57.68,23.63 -67.28,49.15 -58.59,108.91 -58.59,182.85l0 644.49c0,42.79 -4.99,116.46 9.27,152 14.9,37.19 44.14,66.34 82.14,80.29 41.13,15.1 254.19,8.21 314.51,8.21 268.92,0 537.83,0 806.74,0 97.62,0 203.87,21.48 255.77,-67.08 26.06,-44.48 19.88,-85.64 19.88,-141.43l0 -644.48c0,-44.73 5.46,-113.59 -9.44,-151.93 -14.24,-36.63 -44.35,-66.34 -82.07,-80.33 -40.62,-15.07 -254.47,-8.23 -314.4,-8.23l-806.75 0c-41.05,0 -123.38,-4.48 -159.38,2.01zm620.45 973.24c-39.54,9.4 -28.78,74.96 15.76,64.27 38.24,-9.17 27.78,-74.62 -15.76,-64.27zm-610.78 -928.3c-39.08,5.78 -65.83,32.14 -76.2,65.93 -8.18,26.62 -3.87,378.47 -3.87,422.42 0,94.48 -0.03,188.95 -0.02,283.42 0,47.26 17.03,76.41 47.47,93.2 34.03,18.77 89.65,12.43 132.05,12.43 331.38,0 662.77,0 994.15,0 86.36,0 193.07,22.11 219.06,-67.05 7.53,-25.8 3.86,-104.74 3.86,-136.88l0.02 -569.07c-0.14,-122.99 -106.05,-105.65 -179.52,-105.65 -331.38,0 -662.76,0 -994.14,0 -38.89,0 -107.93,-3.92 -142.86,1.25z"/>
   <path class="fil0" d="M884.05 1575.81c-18.61,2.27 -160.58,0.67 -190.4,0.54 -29.04,-0.12 -51.19,12.93 -50.15,42.87 1.13,32.42 25.23,39.61 57.09,39.46 24.19,-0.12 739.71,2.1 760.97,-0.46 24.72,-2.98 44.14,-29.7 32.45,-57.6 -11.6,-27.67 -36.65,-24.22 -71.24,-24.22 -31.43,0 -173.35,1.76 -191.97,-0.75l-30.58 -117.63 -287.09 -0.46 -29.08 118.25z"/>
  </g>
  <path class="fil1" d="M147.53 2072.18c45.42,0 71.86,-25.2 86.49,-51.03l-37.95 -18.36c-8.72,16.81 -27.38,30.18 -48.54,30.18 -37.96,0 -65.34,-28.93 -65.34,-68.13 0,-39.21 27.38,-68.14 65.34,-68.14 21.16,0 39.82,13.38 48.54,30.18l37.95 -18.67c-14.63,-26.13 -41.07,-50.71 -86.49,-50.71 -62.54,0 -110.76,43.24 -110.76,107.34 0,63.78 48.22,107.34 110.76,107.34zm181.7 0c49.78,0 79.65,-36.4 79.65,-79.03 0,-42.63 -29.87,-78.72 -79.65,-78.72 -49.47,0 -79.34,36.09 -79.34,78.72 0,42.63 29.87,79.03 79.34,79.03zm0 -35.16c-24.58,0 -38.27,-20.23 -38.27,-43.87 0,-23.33 13.69,-43.56 38.27,-43.56 24.89,0 38.58,20.23 38.58,43.56 0,23.64 -13.69,43.87 -38.58,43.87zm335.4 31.42l0 -108.58c0,-30.8 -16.5,-45.43 -44.19,-45.43 -23.02,0 -42.93,13.69 -51.64,27.07 -5.3,-16.8 -19.6,-27.07 -41.7,-27.07 -23.01,0 -42.62,14.32 -49.15,23.03l0 -19.29 -39.51 0 0 150.27 39.51 0 0 -101.43c5.9,-8.08 17.42,-17.42 31.11,-17.42 16.18,0 22.4,9.96 22.4,23.96l0 94.89 39.83 0 0 -101.43c5.59,-8.08 17.1,-17.42 31.11,-17.42 16.18,0 22.4,9.96 22.4,23.96l0 94.89 39.83 0zm125.06 3.74c38.58,0 66.58,-28.94 66.58,-79.03 0,-50.09 -28,-78.72 -66.58,-78.72 -18.36,0 -34.84,8.1 -46.35,22.71l0 -18.97 -39.52 0 0 207.52 39.52 0 0 -76.54c12.44,15.56 28.62,23.03 46.35,23.03zm-12.44 -35.16c-12.76,0 -27.38,-7.78 -33.91,-17.42l0 -52.9c6.84,-9.95 21.15,-17.11 33.91,-17.11 22.71,0 38.27,17.74 38.27,43.56 0,26.13 -15.56,43.87 -38.27,43.87zm248.9 31.42l0 -150.27 -39.52 0 0 101.74c-6.84,8.71 -18.97,17.11 -34.22,17.11 -16.8,0 -27.68,-6.85 -27.68,-27.69l0 -91.16 -39.52 0 0 106.72c0,29.24 15.55,47.29 48.54,47.29 24.58,0 42.62,-11.51 52.88,-22.71l0 18.97 39.52 0zm89.6 3.74c16.5,0 27.07,-4.36 32.99,-9.65l-8.41 -30.18c-2.18,2.49 -7.77,4.67 -13.69,4.67 -8.71,0 -13.68,-7.16 -13.68,-16.8l0 -67.52 30.49 0 0 -34.53 -30.49 0 0 -41.07 -39.52 0 0 41.07 -24.89 0 0 34.53 24.89 0 0 78.1c0,27.06 14.63,41.38 42.31,41.38zm184.82 -3.74l0 -97.07c0,-43.25 -31.42,-56.94 -65.96,-56.94 -23.65,0 -47.29,7.16 -65.64,23.65l15.55 27.69c12.44,-11.51 27.38,-17.73 43.25,-17.73 19.91,0 32.97,9.95 32.97,25.19l0 18.99c-9.95,-11.83 -27.38,-18.36 -47.6,-18.36 -23.95,0 -51.96,13.06 -51.96,48.54 0,33.6 28.01,49.78 51.96,49.78 19.61,0 37.34,-7.16 47.6,-19.61l0 15.87 39.83 0zm-71.56 -23.02c-15.56,0 -28.31,-8.09 -28.31,-22.41 0,-14.3 12.75,-22.71 28.31,-22.71 12.76,0 25.2,4.67 31.73,13.39l0 18.66c-6.53,8.71 -18.97,13.07 -31.73,13.07zm253.57 23.02l0 -207.52 -39.82 0 0 76.54c-11.83,-15.56 -28.63,-23.03 -46.36,-23.03 -38.27,0 -66.58,29.87 -66.58,78.72 0,50.4 28.93,79.03 66.58,79.03 18.35,0 34.53,-8.1 46.36,-23.03l0 19.29 39.82 0zm-73.73 -31.42c-22.72,0 -38.27,-17.74 -38.27,-43.87 0,-25.82 15.55,-43.56 38.27,-43.56 13.06,0 27.38,7.16 33.91,17.11l0 53.21c-6.53,9.95 -20.85,17.11 -33.91,17.11zm182.63 35.16c49.78,0 79.65,-36.4 79.65,-79.03 0,-42.63 -29.87,-78.72 -79.65,-78.72 -49.47,0 -79.34,36.09 -79.34,78.72 0,42.63 29.87,79.03 79.34,79.03zm0 -35.16c-24.58,0 -38.27,-20.23 -38.27,-43.87 0,-23.33 13.69,-43.56 38.27,-43.56 24.89,0 38.58,20.23 38.58,43.56 0,23.64 -13.69,43.87 -38.58,43.87zm148.72 31.42l0 -99.25c6.53,-9.64 23.96,-17.11 37.02,-17.11 4.67,0 8.09,0.32 10.89,0.93l0 -38.58c-18.67,0 -37.02,10.9 -47.91,23.96l0 -20.22 -39.51 0 0 150.27 39.51 0zm143.12 3.74c23.33,0 46.97,-7.16 61.91,-20.85l-17.73 -26.14c-9.65,9.34 -27.07,14.63 -39.83,14.63 -25.51,0 -40.44,-15.24 -43.25,-33.6l111.7 0 0 -9.34c0,-48.84 -30.18,-82.45 -75.29,-82.45 -45.43,0 -77.78,35.16 -77.78,78.72 0,48.22 34.53,79.03 80.27,79.03zm34.85 -93.34l-74.06 0c1.56,-14.93 12.14,-32.05 36.72,-32.05 26.14,0 36.09,17.73 37.34,32.05zm120.7 93.34c41.7,0 65.35,-20.22 65.35,-47.92 0,-60.66 -89.3,-42 -89.3,-64.09 0,-8.4 9.34,-14.62 23.65,-14.62 18.35,0 35.47,8.09 44.49,17.42l15.87 -28c-14.94,-11.82 -35.17,-20.54 -60.36,-20.54 -39.83,0 -61.6,22.1 -61.6,47.3 0,59.11 88.97,38.88 88.97,63.46 0,9.34 -8.08,15.87 -25.19,15.87 -18.67,0 -40.76,-10.26 -51.96,-20.84l-17.12 28.62c15.87,14.63 41.07,23.34 67.2,23.34z"/>
 </g>
</svg>
