<?xml version="1.0" encoding="UTF-8"?>
<!DOCTYPE svg PUBLIC "-//W3C//DTD SVG 1.1//EN" "http://www.w3.org/Graphics/SVG/1.1/DTD/svg11.dtd">
<!-- Creator: CorelDRAW 2020 (64-Bit) -->
<svg xmlns="http://www.w3.org/2000/svg" xml:space="preserve" width="21.6746mm" height="21.6746mm" version="1.1" style="shape-rendering:geometricPrecision; text-rendering:geometricPrecision; image-rendering:optimizeQuality; fill-rule:evenodd; clip-rule:evenodd"
viewBox="0 0 2167.46 2167.46"
 xmlns:xlink="http://www.w3.org/1999/xlink"
 xmlns:xodm="http://www.corel.com/coreldraw/odm/2003">
 <defs>
  <style type="text/css">
   <![CDATA[
    .fil1 {fill:#A9ABAE}
    .fil0 {fill:#373435;fill-rule:nonzero}
   ]]>
  </style>
 </defs>
 <g id="Capa_x0020_1">
  <metadata id="CorelCorpID_0Corel-Layer"/>
  <path class="fil0" d="M373.25 2101.99l0 -40.31 -106.43 0 0 -49.02 104.17 0 0 -40.31 -104.17 0 0 -45.15 106.43 0 0 -40.3 -152.22 0 0 215.09 152.22 0zm106.08 -32.57c-23.21,0 -39.34,-18.39 -39.34,-45.48 0,-26.76 16.13,-45.14 39.34,-45.14 13.55,0 28.38,7.42 35.16,17.74l0 54.82c-6.78,9.99 -21.61,18.06 -35.16,18.06zm-12.89 36.43c18.7,0 35.47,-7.73 48.05,-23.86l0 79.33 41.27 0 0 -215.09 -41.27 0 0 19.67c-11.94,-15.16 -29.03,-23.54 -48.05,-23.54 -39.67,0 -68.69,29.66 -68.69,81.58 0,51.93 29.02,81.91 68.69,81.91zm275.71 -3.86l0 -155.76 -40.95 0 0 105.45c-7.1,9.03 -19.67,17.74 -35.47,17.74 -17.42,0 -28.71,-7.1 -28.71,-28.7l0 -94.49 -40.95 0 0 110.61c0,30.31 16.13,49.01 50.31,49.01 25.48,0 44.18,-11.92 54.82,-23.54l0 19.68 40.95 0zm60.96 -172.53c13.54,0 24.5,-10.96 24.5,-24.51 0,-13.54 -10.96,-24.19 -24.5,-24.19 -13.22,0 -24.19,10.65 -24.19,24.19 0,13.55 10.97,24.51 24.19,24.51zm20.63 172.53l0 -155.76 -40.95 0 0 155.76 40.95 0zm129.64 3.86c39.99,0 69.01,-29.98 69.01,-81.91 0,-51.92 -29.02,-81.58 -69.01,-81.58 -19.02,0 -36.12,8.38 -48.05,23.54l0 -19.67 -40.96 0 0 215.09 40.96 0 0 -79.33c12.9,16.13 29.67,23.86 48.05,23.86zm-12.9 -36.43c-13.22,0 -28.38,-8.07 -35.15,-18.06l0 -54.82c7.1,-10.32 21.93,-17.74 35.15,-17.74 23.54,0 39.67,18.38 39.67,45.14 0,27.09 -16.13,45.48 -39.67,45.48zm184.13 36.43c51.6,0 82.56,-37.72 82.56,-81.91 0,-44.18 -30.96,-81.58 -82.56,-81.58 -51.27,0 -82.22,37.4 -82.22,81.58 0,44.19 30.95,81.91 82.22,81.91zm0 -36.43c-25.47,0 -39.66,-20.97 -39.66,-45.48 0,-24.18 14.19,-45.14 39.66,-45.14 25.8,0 39.99,20.96 39.99,45.14 0,24.51 -14.19,45.48 -39.99,45.48zm169.31 36.43c43.21,0 67.72,-20.96 67.72,-49.66 0,-62.88 -92.56,-43.53 -92.56,-66.43 0,-8.7 9.67,-15.16 24.52,-15.16 19.01,0 36.76,8.39 46.11,18.06l16.45 -29.02c-15.48,-12.25 -36.44,-21.28 -62.56,-21.28 -41.29,0 -63.86,22.9 -63.86,49.02 0,61.26 92.23,40.3 92.23,65.78 0,9.68 -8.38,16.44 -26.12,16.44 -19.35,0 -42.24,-10.63 -53.86,-21.6l-17.73 29.67c16.45,15.16 42.57,24.18 69.66,24.18zm227.34 -3.86l0 -76.75 54.82 0c46.44,0 72.23,-31.61 72.23,-69.02 0,-37.72 -25.47,-69.32 -72.23,-69.32l-100.62 0 0 215.09 45.8 0zm48.37 -117.07l-48.37 0 0 -57.72 48.37 0c18.07,0 31.93,10.97 31.93,29.02 0,17.74 -13.86,28.7 -31.93,28.7zm173.17 120.93c51.61,0 82.56,-37.72 82.56,-81.91 0,-44.18 -30.95,-81.58 -82.56,-81.58 -51.27,0 -82.22,37.4 -82.22,81.58 0,44.19 30.95,81.91 82.22,81.91zm0 -36.43c-25.47,0 -39.66,-20.97 -39.66,-45.48 0,-24.18 14.19,-45.14 39.66,-45.14 25.81,0 39.99,20.96 39.99,45.14 0,24.51 -14.18,45.48 -39.99,45.48zm169.31 36.43c43.21,0 67.72,-20.96 67.72,-49.66 0,-62.88 -92.56,-43.53 -92.56,-66.43 0,-8.7 9.68,-15.16 24.52,-15.16 19.02,0 36.76,8.39 46.11,18.06l16.45 -29.02c-15.48,-12.25 -36.44,-21.28 -62.56,-21.28 -41.28,0 -63.86,22.9 -63.86,49.02 0,61.26 92.23,40.3 92.23,65.78 0,9.68 -8.38,16.44 -26.12,16.44 -19.35,0 -42.24,-10.63 -53.85,-21.6l-17.74 29.67c16.45,15.16 42.57,24.18 69.66,24.18z"/>
  <path class="fil1" d="M1365.19 805.58l0 159.86c0,26.87 20.7,57.4 35.75,70.82 35.4,31.56 72.37,29.08 117.45,29.08l0 83.26 -1102.32 0c-61.07,0 -109.9,51.57 -109.9,119.88l0 293.07c0,35.56 12.87,60.54 29.34,80.56 11.75,14.27 48.81,36 73.9,36l1365.41 0c24.37,0 60.15,-20.71 72.37,-34.19 14.56,-16.07 30.86,-49.52 30.86,-79.04l0 -296.4c0,-64.85 -46.22,-119.88 -109.9,-119.88l-26.64 0 0 -83.26c50.44,0 79.53,3.35 117.88,-31.99l12.6 -14.03c14,-18.67 22.71,-41.76 22.71,-67.21l0 -129.88c0,-33.77 -12.72,-62.42 -29.08,-80.82 -15,-16.87 -46.58,-35.73 -77.48,-35.73l-323.04 0c-46.81,0 -99.91,53.09 -99.91,99.9zm76.89 -45.08l378.45 0c17.86,0 32.48,14.62 32.48,32.47l0 181.31c0,17.86 -14.62,32.48 -32.48,32.48l-378.45 0c-17.86,0 -32.47,-14.62 -32.47,-32.48l0 -181.31c0,-17.85 14.61,-32.47 32.47,-32.47zm-986.28 431.39l1285.62 0c50.38,0 91.6,41.22 91.6,91.61l0 262.19c0,50.39 -41.22,91.61 -91.6,91.61l-1285.62 0c-50.38,0 -91.6,-41.22 -91.6,-91.61l0 -262.19c0,-50.39 41.22,-91.61 91.6,-91.61zm-13.09 -795.93l0 602.77c0,64.98 49.07,116.56 106.57,116.56l629.42 0c33,0 71.78,-30.14 84.42,-52.11 19.24,-33.42 18.72,-63.14 18.9,-111.14 0.1,-28.23 -4.51,-33.89 -0.93,-60.93 0.9,-6.83 0.79,-8.09 0.48,-14.99l-1.57 -112.44c2.24,-14.25 1.27,-14.75 0.97,-28.49l0.79 -65.97c-0.93,-11.1 -4.08,-16.38 -3.11,-29.85l3.42 -93.68c-0.22,-17.43 -3.25,-18.94 -3.59,-33.26l3.34 -59.71c1.78,-43.13 0.55,-85.57 -17.54,-119.03 -12.51,-23.14 -51.58,-54.29 -85.58,-54.29l-629.42 0c-28.34,0 -62.35,18.54 -75.7,34.21 -17.65,20.7 -30.87,45.22 -30.87,82.35zm130.37 -55.12l578.96 0c41.32,0 75.11,33.79 75.11,75.1l0 544.23c0,41.31 -33.79,75.11 -75.11,75.11l-578.96 0c-41.31,0 -75.11,-33.8 -75.11,-75.11l0 -544.23c0,-41.31 33.8,-75.1 75.11,-75.1zm-34.4 133.19l0 426.22c0,59.57 39.84,104.62 89.11,104.62l453.35 0c48.49,0 92.99,-38.76 92.99,-85.25l0 -472.72c0,-29.03 -39.66,-77.5 -85.24,-77.5l-461.1 0c-48.47,0 -89.11,43.06 -89.11,104.63zm113.78 -75.54l407.87 0c50.83,0 92.41,41.58 92.41,92.41l0 392.48c0,50.82 -41.58,92.4 -92.41,92.4l-407.87 0c-50.82,0 -92.4,-41.58 -92.4,-92.4l0 -392.48c0,-50.83 41.58,-92.41 92.4,-92.41zm-173.12 1126.42l1245.51 0c0,-43.67 6.44,-69.93 -9.98,-69.93l-1228.87 0c-11.89,0 -9.16,6.58 -9.5,24.41l2.84 45.52zm985.76 -686.02c0,4.2 0.44,5.26 0.82,8.72 1.88,17.04 -4.87,10.74 11.94,11.6 54.45,2.79 237.43,-0.35 296.96,-0.35l0 -33.3 -309.72 0 0 13.33zm104.36 310.36l119.31 -0.16 -0.29 -84.91 -118.63 -0.22 -0.39 85.29zm-94.37 -203.8l196.48 0 0 -36.63 -196.48 0c-14.5,0 -9.23,26.91 -8.89,28.31 1.57,6.46 -1.99,8.32 8.89,8.32zm-985.76 382.99c0,59.25 96.59,72.44 96.59,-6.67 0,-51.62 -96.59,-62.22 -96.59,6.67z"/>
 </g>
</svg>
