<?xml version="1.0" encoding="UTF-8"?>
<!DOCTYPE svg PUBLIC "-//W3C//DTD SVG 1.1//EN" "http://www.w3.org/Graphics/SVG/1.1/DTD/svg11.dtd">
<!-- Creator: CorelDRAW 2020 (64-Bit) -->
<svg xmlns="http://www.w3.org/2000/svg" xml:space="preserve" width="21.6746mm" height="21.6746mm" version="1.1" style="shape-rendering:geometricPrecision; text-rendering:geometricPrecision; image-rendering:optimizeQuality; fill-rule:evenodd; clip-rule:evenodd"
viewBox="0 0 2167.46 2167.46"
 xmlns:xlink="http://www.w3.org/1999/xlink"
 xmlns:xodm="http://www.corel.com/coreldraw/odm/2003">
 <defs>
  <style type="text/css">
   <![CDATA[
    .fil0 {fill:#A9ABAE}
    .fil1 {fill:#373435;fill-rule:nonzero}
   ]]>
  </style>
 </defs>
 <g id="Capa_x0020_1">
  <metadata id="CorelCorpID_0Corel-Layer"/>
  <g id="_2878414882896">
   <path class="fil0" d="M252.72 1462.22l1622.47 -0.18c-5.6,-310.7 -0.23,-626.81 -0.23,-938.19 0,-144.71 14.72,-126.54 -104.13,-126.53l-1405.42 0c-132.32,0 -112.42,-11.73 -112.42,122.53 0,156.15 0,312.31 0,468.47 0,156.5 3.9,318.04 -0.27,473.9zm37.3 -53.93l1548.09 0.38 -0.16 -931.07 -1546.98 -0.48 -0.95 931.17z"/>
   <path class="fil0" d="M2082.82 1472.03c-123.32,-5.76 -374.31,-0.42 -512.19,-0.42 -33.41,0 -300.31,-3.54 -318.94,2.46 -29.52,9.51 -2.86,8.16 -57.44,7.98l-256.26 -0.01c-30.44,0.06 -34.49,2.81 -58.73,-6.55 -15.84,-6.11 -40.96,-3.89 -61.39,-3.88 -85.42,0.06 -170.84,0 -256.26,0 -170.33,0 -346.7,-4.53 -516.26,0.22 10.11,99.72 100.51,82.55 191.94,82.55l1649.65 0c98.59,0 183.52,19.51 195.88,-82.35z"/>
  </g>
  <path class="fil1" d="M332.25 2154l0 -88.91 63.51 0c53.8,0 83.68,-36.61 83.68,-79.95 0,-43.7 -29.51,-80.31 -83.68,-80.31l-116.56 0 0 249.17 53.05 0zm56.04 -135.61l-56.04 0 0 -66.86 56.04 0c20.92,0 36.99,12.7 36.99,33.61 0,20.56 -16.07,33.25 -36.99,33.25zm200.6 140.09c59.78,0 95.64,-43.7 95.64,-94.88 0,-51.19 -35.86,-94.52 -95.64,-94.52 -59.39,0 -95.25,43.33 -95.25,94.52 0,51.18 35.86,94.88 95.25,94.88zm0 -42.2c-29.5,0 -45.94,-24.3 -45.94,-52.68 0,-28.02 16.44,-52.31 45.94,-52.31 29.89,0 46.33,24.29 46.33,52.31 0,28.38 -16.44,52.68 -46.33,52.68zm178.57 37.72l0 -119.16c7.85,-11.59 28.77,-20.56 44.46,-20.56 5.6,0 9.71,0.38 13.08,1.12l0 -46.32c-22.42,0 -44.47,13.07 -57.54,28.77l0 -24.28 -47.44 0 0 180.43 47.44 0zm147.56 4.48c19.81,0 32.51,-5.23 39.61,-11.58l-10.09 -36.23c-2.61,2.99 -9.33,5.61 -16.44,5.61 -10.46,0 -16.43,-8.6 -16.43,-20.19l0 -81.06 36.6 0 0 -41.46 -36.6 0 0 -49.31 -47.45 0 0 49.31 -29.89 0 0 41.46 29.89 0 0 93.77c0,32.5 17.56,49.68 50.8,49.68zm221.9 -4.48l0 -116.56c0,-51.92 -37.72,-68.36 -79.19,-68.36 -28.39,0 -56.79,8.6 -78.82,28.4l18.67 33.25c14.95,-13.83 32.88,-21.31 51.94,-21.31 23.9,0 39.59,11.96 39.59,30.26l0 22.8c-11.95,-14.2 -32.88,-22.05 -57.16,-22.05 -28.76,0 -62.39,15.7 -62.39,58.28 0,40.35 33.63,59.77 62.39,59.77 23.54,0 44.84,-8.59 57.16,-23.53l0 19.05 47.81 0zm-85.92 -27.64c-18.67,0 -33.99,-9.71 -33.99,-26.9 0,-17.18 15.32,-27.27 33.99,-27.27 15.32,0 30.26,5.6 38.11,16.07l0 22.41c-7.85,10.45 -22.79,15.69 -38.11,15.69zm71.73 -233.86l-43.71 0 -50.06 53.8 33.25 0 60.52 -53.8zm121.4 265.98c19.81,0 32.51,-5.23 39.61,-11.58l-10.09 -36.23c-2.62,2.99 -9.33,5.61 -16.44,5.61 -10.46,0 -16.44,-8.6 -16.44,-20.19l0 -81.06 36.61 0 0 -41.46 -36.61 0 0 -49.31 -47.44 0 0 49.31 -29.89 0 0 41.46 29.89 0 0 93.77c0,32.5 17.56,49.68 50.8,49.68zm89.29 -204.33c15.68,0 28.39,-12.71 28.39,-28.4 0,-15.69 -12.71,-28.02 -28.39,-28.02 -15.31,0 -28.02,12.33 -28.02,28.02 0,15.69 12.71,28.4 28.02,28.4zm23.9 199.85l0 -180.43 -47.44 0 0 180.43 47.44 0zm94.52 0l0 -249.17 -47.45 0 0 249.17 47.45 0zm131.88 4.48c28.01,0 56.41,-8.59 74.33,-25.02l-21.29 -31.39c-11.58,11.22 -32.5,17.56 -47.81,17.56 -30.64,0 -48.57,-18.3 -51.93,-40.34l134.11 0 0 -11.21c0,-58.66 -36.24,-99 -90.4,-99 -54.55,0 -93.4,42.21 -93.4,94.52 0,57.9 41.47,94.88 96.39,94.88zm41.83 -112.07l-88.9 0c1.86,-17.93 14.56,-38.47 44.08,-38.47 31.38,0 43.33,21.29 44.82,38.47zm144.95 112.07c50.06,0 78.45,-24.28 78.45,-57.53 0,-72.84 -107.22,-50.43 -107.22,-76.95 0,-10.09 11.21,-17.56 28.4,-17.56 22.03,0 42.58,9.71 53.42,20.92l19.05 -33.62c-17.93,-14.19 -42.21,-24.66 -72.47,-24.66 -47.82,0 -73.97,26.53 -73.97,56.79 0,70.97 106.84,46.69 106.84,76.2 0,11.22 -9.71,19.05 -30.26,19.05 -22.41,0 -48.93,-12.32 -62.39,-25.03l-20.54 34.38c19.05,17.55 49.31,28.01 80.69,28.01z"/>
 </g>
</svg>
