<?xml version="1.0" encoding="UTF-8"?>
<!DOCTYPE svg PUBLIC "-//W3C//DTD SVG 1.1//EN" "http://www.w3.org/Graphics/SVG/1.1/DTD/svg11.dtd">
<!-- Creator: CorelDRAW 2020 (64-Bit) -->
<svg xmlns="http://www.w3.org/2000/svg" xml:space="preserve" width="21.6746mm" height="21.6746mm" version="1.1" style="shape-rendering:geometricPrecision; text-rendering:geometricPrecision; image-rendering:optimizeQuality; fill-rule:evenodd; clip-rule:evenodd"
viewBox="0 0 2167.46 2167.46"
 xmlns:xlink="http://www.w3.org/1999/xlink"
 xmlns:xodm="http://www.corel.com/coreldraw/odm/2003">
 <defs>
  <style type="text/css">
   <![CDATA[
    .fil0 {fill:#A9ABAE}
    .fil1 {fill:#373435;fill-rule:nonzero}
   ]]>
  </style>
 </defs>
 <g id="Capa_x0020_1">
  <metadata id="CorelCorpID_0Corel-Layer"/>
  <path class="fil0" d="M673.24 417.5c-72.78,22.48 -52.61,109.47 -52.61,222.28l0 833.61c0,238.46 -31.46,200.85 351.26,200.85 74.08,0 516.62,5.19 550.31,-3.24 70.35,-17.6 50.42,-117.42 50.42,-221.95l0 -833.61c0,-238.99 28.18,-200.85 -351.26,-200.85 -77.28,0 -510.65,-8.67 -548.12,2.91zm388.67 1144.5c-21.76,94.18 91.58,95.89 69.43,0 -25.04,-15.02 -44.29,-15.99 -69.43,0zm-397.54 -55.82l891.65 0.74 -27.14 -0.74 -0.02 -978.1 -9.34 -0.67 -851.87 0 -3.28 978.77z"/>
  <path class="fil1" d="M599.37 2157.51l0 -199.6 71.44 0 0 -46.03 -195.92 0 0 46.03 71.82 0 0 199.6 52.66 0zm229.05 0l0 -114.9c0,-51.18 -37.19,-67.39 -78.06,-67.39 -27.99,0 -55.99,8.47 -77.7,27.99l18.4 32.78c14.74,-13.63 32.41,-21 51.2,-21 23.56,0 39.03,11.79 39.03,29.83l0 22.47c-11.79,-14 -32.41,-21.73 -56.35,-21.73 -28.35,0 -61.5,15.47 -61.5,57.45 0,39.77 33.15,58.92 61.5,58.92 23.21,0 44.2,-8.47 56.35,-23.2l0 18.78 47.13 0zm-84.7 -27.24c-18.4,0 -33.51,-9.58 -33.51,-26.52 0,-16.94 15.11,-26.88 33.51,-26.88 15.1,0 29.83,5.51 37.57,15.83l0 22.09c-7.74,10.31 -22.47,15.48 -37.57,15.48zm177.5 -29.84l0 -62.97c8.11,-11.79 25.05,-20.63 40.51,-20.63 26.88,0 44.94,20.99 44.94,51.56 0,30.93 -18.06,51.93 -44.94,51.93 -15.46,0 -32.4,-8.47 -40.51,-19.89zm0 57.08l0 -22.83c14,17.68 33.51,27.25 54.88,27.25 44.92,0 78.8,-33.88 78.8,-93.54 0,-57.81 -33.51,-93.17 -78.8,-93.17 -20.99,0 -40.88,8.84 -54.88,27.26l0 -90.6 -46.77 0 0 245.63 46.77 0zm215.8 0l0 -245.63 -46.77 0 0 245.63 46.77 0zm130.01 4.42c27.61,0 55.61,-8.47 73.27,-24.67l-20.99 -30.94c-11.41,11.06 -32.03,17.31 -47.13,17.31 -30.2,0 -47.87,-18.04 -51.19,-39.77l132.2 0 0 -11.04c0,-57.83 -35.72,-97.6 -89.11,-97.6 -53.77,0 -92.07,41.61 -92.07,93.17 0,57.09 40.88,93.54 95.02,93.54zm41.24 -110.48l-87.65 0c1.85,-17.68 14.36,-37.93 43.46,-37.93 30.93,0 42.72,20.99 44.19,37.93zm138.46 110.48c19.52,0 32.05,-5.16 39.04,-11.41l-9.94 -35.73c-2.58,2.95 -9.2,5.53 -16.21,5.53 -10.31,0 -16.2,-8.47 -16.2,-19.89l0 -79.91 36.09 0 0 -40.88 -36.09 0 0 -48.61 -46.77 0 0 48.61 -29.46 0 0 40.88 29.46 0 0 92.43c0,32.04 17.3,48.98 50.08,48.98zm128.89 0c49.36,0 77.34,-23.94 77.34,-56.71 0,-71.81 -105.7,-49.72 -105.7,-75.86 0,-9.95 11.05,-17.32 28,-17.32 21.72,0 41.98,9.58 52.66,20.63l18.78 -33.14c-17.67,-13.99 -41.61,-24.31 -71.44,-24.31 -47.14,0 -72.92,26.15 -72.92,55.98 0,69.97 105.32,46.03 105.32,75.12 0,11.06 -9.57,18.78 -29.83,18.78 -22.09,0 -48.23,-12.15 -61.5,-24.67l-20.25 33.89c18.78,17.3 48.61,27.61 79.54,27.61z"/>
 </g>
</svg>
